name C:\Users\u0101727\Documents\MyRepositories\upper-imu-dc\OpenSim\subject0\MA\train_motion_filt.mot									
datacolumns 10									
datarows 105									
range 22.54 23.58									
endheader 									
time	clav_prot	clav_elev	scapula_abduction	scapula_elevation	scapula_upward_rot	scapula_winging	plane_elv	shoulder_elv	axial_rot
22.54	-44.97983804	9.14097978	-4.29616258	-2.20628101	78.72849857	-13.03829843	21.99623845	88.00564826	-4.60401213
22.55	-44.965994	9.10166711	-4.17413035	-2.22101619	78.84320877	-13.00299472	22.28548445	88.00639229	-4.61810065
22.56	-44.9519102	9.06150564	-4.05441169	-2.23658693	78.95417264	-12.96769913	22.57167723	88.0053222	-4.62877115
22.57	-44.93770115	9.02062694	-3.93732194	-2.25293227	79.06127172	-12.93254706	22.85460064	88.00241336	-4.63583776
22.58	-44.92349232	8.97919426	-3.823184	-2.2699684	79.16441207	-12.89768642	23.1340179	87.99763834	-4.63916625
22.59	-44.90941512	8.93739711	-3.7123156	-2.28759135	79.26352815	-12.86327234	23.40967427	87.99096624	-4.6386777
22.6	-44.89560169	8.89544456	-3.6050159	-2.30568072	79.35858642	-12.8294613	23.68130061	87.98236235	-4.6343517
22.61	-44.88217953	8.85355756	-3.50155245	-2.32410402	79.44958818	-12.79640517	23.94861789	87.97178847	-4.62622904
22.62	-44.86926658	8.81196103	-3.40214933	-2.34272132	79.5365715	-12.76424543	24.21134279	87.95920383	-4.61441337
22.63	-44.85696672	8.77087629	-3.30697722	-2.36138989	79.61961186	-12.73310803	24.46919414	87.94456687	-4.59907192
22.64	-44.84536619	8.73051441	-3.21614619	-2.37996839	79.69882141	-12.70309925	24.72190026	87.92783779	-4.58043502
22.65	-44.83453072	8.69107103	-3.12970144	-2.39832029	79.77434675	-12.67430269	24.96920674	87.90898217	-4.55879448
22.66	-44.82450364	8.65272306	-3.04762217	-2.41631634	79.84636507	-12.64677758	25.2108842	87.8879754	-4.53450073
22.67	-44.81530475	8.61562729	-2.96982343	-2.43383591	79.91507892	-12.62055841	25.44673585	87.86480805	-4.50795862
22.68	-44.80692991	8.57992087	-2.89616081	-2.45076728	79.98070946	-12.59565568	25.67660398	87.83949202	-4.47962193
22.69	-44.79935122	8.54572319	-2.82643731	-2.46700721	80.04348856	-12.57205771	25.9003754	87.81206702	-4.44998632
22.7	-44.79251771	8.51313865	-2.76041207	-2.48246004	80.10364995	-12.54973308	26.11798527	87.7826071	-4.4195805
22.71	-44.78635656	8.48225946	-2.69781022	-2.4970369	80.16141994	-12.52863354	26.3294194	87.75122664	-4.38895572
22.72	-44.78077458	8.45316789	-2.63833319	-2.51065525	80.21700807	-12.508697	26.53471465	87.71808519	-4.35867333
22.73	-44.7756601	8.42593768	-2.58166886	-2.52323906	80.27059848	-12.4898504	26.73395775	87.68339061	-4.3292909
22.74	-44.77088511	8.40063423	-2.52750092	-2.53471969	80.32234237	-12.47201222	26.92728238	87.64739999	-4.30134706
22.75	-44.76630756	8.37731387	-2.4755169	-2.54503721	80.37235235	-12.45509465	27.11486486	87.61041787	-4.27534595
22.76	-44.76177393	8.35602232	-2.42541479	-2.55414207	80.42069882	-12.43900529	27.29691871	87.57279171	-4.25174172
22.77	-44.7571218	8.33679289	-2.37690788	-2.56199674	80.46740878	-12.42364861	27.47368847	87.53490461	-4.23092395
22.78	-44.75218264	8.31964461	-2.32972803	-2.56857718	80.51246691	-12.40892698	27.64544325	87.49716572	-4.21320458
22.79	-44.74678461	8.30458062	-2.28362743	-2.57387382	80.55581881	-12.39474161	27.8124703	87.45999883	-4.19880694
22.8	-44.74075521	8.29158702	-2.238379	-2.57789212	80.59737607	-12.38099324	27.97506906	87.42382986	-4.18785709
22.81	-44.73392392	8.28063227	-2.19377544	-2.58065252	80.63702285	-12.36758272	28.13354564	87.38907418	-4.18037807
22.82	-44.72612448	8.27166714	-2.14962734	-2.58218991	80.67462351	-12.35441139	28.28820797	87.35612437	-4.17628697
22.83	-44.71719694	8.26462536	-2.10576023	-2.58255246	80.71003097	-12.34138137	28.43936148	87.32533939	-4.17539512
22.84	-44.7069892	8.25942488	-2.06201108	-2.58180005	80.7430953	-12.32839574	28.58730522	87.29703569	-4.17741149
22.85	-44.6953583	8.2559697	-2.01822424	-2.58000217	80.77367226	-12.31535862	28.73232832	87.27148076	-4.18194915
22.86	-44.6821712	8.25415247	-1.97424739	-2.57723538	80.80163128	-12.30217532	28.87470658	87.24888938	-4.18853498
22.87	-44.66730543	8.25385756	-1.92992768	-2.57358054	80.82686288	-12.28875257	29.01469923	87.22942264	-4.19662233
22.88	-44.65064946	8.25496464	-1.88510839	-2.5691196	80.84928501	-12.27499885	29.15254561	87.2131893	-4.20560636
22.89	-44.63210315	8.25735272	-1.83962655	-2.56393243	80.86884849	-12.26082509	29.28846194	87.2002493	-4.21484171
22.9	-44.61157824	8.26090418	-1.79331156	-2.55809355	80.88554118	-12.24614552	29.42263815	87.19061861	-4.22366196
22.91	-44.58899926	8.26550872	-1.74598526	-2.55166922	80.89939103	-12.23087896	29.55523499	87.18427495	-4.23140011
22.92	-44.56430468	8.27106673	-1.6974635	-2.54471507	80.91046784	-12.21495022	29.68638158	87.18116384	-4.23740942
22.93	-44.53744874	8.27749175	-1.64755924	-2.53727446	80.91888375	-12.19829192	29.81617358	87.18120437	-4.24108365
22.94	-44.50840369	8.28471161	-1.59608733	-2.52937804	80.92479238	-12.18084631	29.94467213	87.18429441	-4.24187614
22.95	-44.47716259	8.29266804	-1.54287066	-2.52104441	80.92838679	-12.16256725	30.07190349	87.19031525	-4.23931681
22.96	-44.44374261	8.30131443	-1.48774768	-2.51228229	80.92989602	-12.14342205	30.19785955	87.19913535	-4.23302654
22.97	-44.40818851	8.31061181	-1.43058098	-2.50309409	80.92958042	-12.12339325	30.32249874	87.21061357	-4.22272835
22.98	-44.3705764	8.32052299	-1.37126661	-2.49348079	80.92772575	-12.10248008	30.44574756	87.22460193	-4.20825494
22.99	-44.3310175	8.33100528	-1.309744	-2.48344799	80.9246362	-12.08069967	30.56750222	87.24094796	-4.18955232
23	-44.2896616	8.3420022	-1.24600589	-2.47301263	80.92062661	-12.05808808	30.68763037	87.25949683	-4.16667949
23.01	-44.24670036	8.35343506	-1.18010802	-2.46220994	80.91601428	-12.03470093	30.80597272	87.28009315	-4.13980419
23.02	-44.20236977	8.36519504	-1.11217777	-2.45109983	80.911111	-12.0106139	30.92234437	87.30258232	-4.10919542
23.03	-44.15695179	8.37713691	-1.04242101	-2.43977211	80.90621582	-11.9859229	31.03653546	87.32681126	-4.0752133
23.04	-44.11077448	8.38907508	-0.97112598	-2.42834986	80.90160934	-11.96074372	31.14831109	87.35262846	-4.03829717
23.05	-44.06421037	8.40078278	-0.89866338	-2.41699018	80.89754994	-11.93521121	31.25741017	87.37988342	-3.99895278
23.06	-44.01767241	8.41199474	-0.82548164	-2.40588232	80.89427242	-11.90947756	31.36354309	87.40842545	-3.95773958
23.07	-43.97160738	8.42241363	-0.75209684	-2.39524258	80.89198876	-11.88370967	31.46638838	87.43810249	-3.91525851
23.08	-43.92648658	8.43172012	-0.6790775	-2.38530649	80.89089102	-11.85808556	31.56558862	87.46876003	-3.87214091
23.09	-43.88279397	8.43958617	-0.60702479	-2.37631837	80.89115545	-11.83278992	31.6607462	87.50024081	-3.82903853
23.1	-43.84101231	8.44569094	-0.53654957	-2.36851881	80.89294706	-11.80800911	31.7514197	87.5323855	-3.78661477
23.11	-43.80160811	8.44973847	-0.468248	-2.36213099	80.89642388	-11.78392597	31.83712173	87.56503452	-3.74553688
23.12	-43.76501627	8.45147622	-0.40267793	-2.35734651	80.90173977	-11.76071495	31.91731915	87.59803106	-3.70646894
23.13	-43.7316255	8.45071302	-0.34033789	-2.3543118	80.90904521	-11.73853803	31.99143638	87.63122507	-3.67006524
23.14	-43.70176555	8.44733526	-0.28165051	-2.35311624	80.91848568	-11.71754155	32.05886255	87.66447794	-3.6369639
23.15	-43.67569696	8.44131961	-0.22695151	-2.35378308	80.93019728	-11.69785431	32.11896267	87.69766746	-3.60778048
23.16	-43.65360422	8.43274094	-0.17648491	-2.35626412	80.94430001	-11.67958677	32.17109313	87.73069266	-3.58310135
23.17	-43.63559262	8.42177421	-0.13040453	-2.36043914	80.96088916	-11.66283128	32.21462109	87.76347799	-3.56347692
23.18	-43.62168909	8.40868942	-0.08878148	-2.36612029	80.98002565	-11.64766304	32.24894723	87.79597644	-3.54941467
23.19	-43.61184708	8.39383965	-0.05161661	-2.37306176	81.00172628	-11.63414169	32.27353064	87.82817113	-3.54137211
23.2	-43.60595512	8.3776425	-0.01885704	-2.38097396	81.02595499	-11.62231315	32.28791431	87.86007485	-3.5397499
23.21	-43.60384851	8.36055644	0.00958475	-2.38954137	81.05261608	-11.61221172	32.29174938	87.8917274	-3.54488509
23.22	-43.60532345	8.34305369	0.03381083	-2.39844261	81.08155029	-11.60386211	32.2848159	87.92319044	-3.55704473
23.23	-43.61015256	8.32559212	0.05391798	-2.40737089	81.11253421	-11.59728158	32.26703822	87.95453984	-3.57641958
23.24	-43.61810082	8.30858853	0.06997975	-2.41605333	81.14528341	-11.59248196	32.23849314	87.98585588	-3.60311816
23.25	-43.62894086	8.29239577	0.08203127	-2.42426704	81.17945908	-11.5894718	32.19940991	88.01721162	-3.63716075
23.26	-43.64246681	8.27728571	0.09005762	-2.43185092	81.21467793	-11.58825859	32.15016162	88.04866013	-3.6784738
23.27	-43.65850597	8.26343979	0.09398586	-2.43871175	81.25052453	-11.58885144	32.09124847	88.08022134	-3.72688458
23.28	-43.67692794	8.2509479	0.09368048	-2.44482428	81.28656513	-11.59126409	32.02327422	88.11186943	-3.78211683
23.29	-43.69765097	8.23981565	0.08894191	-2.45022526	81.32236212	-11.59551866	31.94691758	88.14352164	-3.84378768
23.3	-43.72064556	8.22997938	0.07950745	-2.45500207	81.35748781	-11.6016498	31.86290069	88.17502941	-3.91140653
23.31	-43.7459353	8.22132701	0.06505434	-2.4592772	81.39153681	-11.60970908	31.77195688	88.20617273	-3.98437634
23.32	-43.77359491	8.21372248	0.04520477	-2.4631904	81.42413613	-11.61976907	31.6747997	88.23665809	-4.06199784
23.33	-43.80374577	8.20703097	0.01953327	-2.46688023	81.45495268	-11.63192649	31.57209497	88.26612066	-4.14347679
23.34	-43.83654881	8.20114206	-0.01242332	-2.4704672	81.48369803	-11.64630365	31.46443706	88.29413042	-4.22793459
23.35	-43.87219517	8.19598824	-0.05115273	-2.47404007	81.51013052	-11.66304757	31.35233021	88.32020221	-4.3144222
23.36	-43.91089481	8.19155693	-0.09715092	-2.47764666	81.53405528	-11.68232637	31.23617534	88.34380877	-4.40193747
23.37	-43.95286378	8.18789499	-0.15090264	-2.48128986	81.55532279	-11.70432298	31.11626235	88.36439621	-4.4894457
23.38	-43.99831079	8.18510566	-0.21285994	-2.4849288	81.57382631	-11.72922629	30.99276783	88.38140053	-4.57590343
23.39	-44.04742414	8.18333881	-0.28341978	-2.48848465	81.58949917	-11.7572208	30.86575775	88.39426435	-4.66028486
23.4	-44.10035995	8.1827762	-0.36290271	-2.49184997	81.60231187	-11.78847538	30.73519459	88.40245262	-4.74161042
23.41	-44.15723258	8.18361353	-0.45153448	-2.49490036	81.61226951	-11.82313265	30.60094842	88.40546657	-4.81897639
23.42	-44.21810817	8.18604187	-0.54943258	-2.49750687	81.61940933	-11.86129978	30.46281087	88.4028551	-4.89158414
23.43	-44.28300179	8.19023013	-0.65659903	-2.49954789	81.62379841	-11.90304187	30.32051138	88.39422333	-4.95876748
23.44	-44.35187821	8.19631061	-0.77292045	-2.50091938	81.62553105	-11.9483785	30.17373451	88.3792379	-5.02001616
23.45	-44.42465626	8.20436856	-0.89817522	-2.50154261	81.62472592	-11.9972836	30.02213735	88.35762939	-5.07499381
23.46	-44.50121597	8.21443645	-1.03204696	-2.50136911	81.62152264	-12.04968859	29.86536593	88.3291918	-5.12354878
23.47	-44.58140766	8.22649291	-1.17414279	-2.50038252	81.61607789	-12.10548802	29.70306964	88.29377995	-5.16571699
23.48	-44.66506163	8.24046594	-1.32401407	-2.49859781	81.608561	-12.16454717	29.53491265	88.25130519	-5.20171642
23.49	-44.75199752	8.25623953	-1.48117737	-2.49605796	81.59914924	-12.22671024	29.36058171	88.2017304	-5.23193377
23.5	-44.84203187	8.27366303	-1.64513352	-2.49282888	81.58802299	-12.29180848	29.17979003	88.14506506	-5.25690454
23.51	-44.93498336	8.29256193	-1.81538293	-2.48899303	81.5753607	-12.35966716	28.99227739	88.0813612	-5.27728806
23.52	-45.03067502	8.31274923	-1.99143599	-2.48464246	81.56133397	-12.43011082	28.79780713	88.01071074	-5.29383929
23.53	-45.12893338	8.33403629	-2.17281831	-2.47987193	81.54610249	-12.50296638	28.59616114	87.9332448	-5.30737934
23.54	-45.22958479	8.35624234	-2.35907093	-2.47477269	81.529809	-12.57806413	28.38713421	87.84913493	-5.31876609
23.55	-45.33244963	8.37920202	-2.54974648	-2.46942755	81.51257414	-12.65523654	28.1705291	87.75859606	-5.32886622
23.56	-45.43733504	8.40277036	-2.74440262	-2.46390745	81.49449114	-12.73431554	27.94615376	87.66189074	-5.33852922
23.57	-45.54402742	8.42682529	-2.94259436	-2.45826974	81.47562042	-12.81512871	27.71382158	87.55933398	-5.34856405
23.58	-45.65228543	8.45126762	-3.14386674	-2.4525583	81.45598426	-12.89749512	27.47335554	87.45129774	-5.35971824
